{
  "accessors": [
    {
      "bufferView": 2,
      "componentType": 5126,
      "count": 65532,
      "max": [
        17.537233352661133,
        14.848954200744629,
        13.505134582519531
      ],
      "min": [
        0.8310818672180176,
        1.7654600143432617,
        0.0
      ],
      "type": "VEC3"
    },
    {
      "bufferView": 2,
      "byteOffset": 786384,
      "componentType": 5126,
      "count": 65532,
      "max": [
        0.9999961256980896,
        0.9999849200248718,
        0.9958547949790955
      ],
      "min": [
        -0.999994158744812,
        -0.9999861121177673,
        -0.999925971031189
      ],
      "type": "VEC3"
    },
    {
      "bufferView": 1,
      "componentType": 5126,
      "count": 65532,
      "max": [
        0.9812660217285156,
        0.9966229796409607
      ],
      "min": [
        0.024413999170064926,
        0.02588599920272827
      ],
      "type": "VEC2"
    },
    {
      "bufferView": 0,
      "componentType": 5125,
      "count": 344229,
      "type": "SCALAR"
    },
    {
      "bufferView": 2,
      "byteOffset": 1572768,
      "componentType": 5126,
      "count": 65532,
      "max": [
        16.331989288330078,
        13.51545524597168,
        14.519672393798828
      ],
      "min": [
        6.295116424560547,
        1.7617850303649902,
        0.005248069763183594
      ],
      "type": "VEC3"
    },
    {
      "bufferView": 2,
      "byteOffset": 2359152,
      "componentType": 5126,
      "count": 65532,
      "max": [
        0.9999998211860657,
        0.9998810887336731,
        0.9999542236328125
      ],
      "min": [
        -0.9996042847633362,
        -0.9999746084213257,
        -0.9994091987609863
      ],
      "type": "VEC3"
    },
    {
      "bufferView": 1,
      "byteOffset": 524256,
      "componentType": 5126,
      "count": 65532,
      "max": [
        0.9396479725837708,
        0.993058979511261
      ],
      "min": [
        0.1527950018644333,
        0.004298000130802393
      ],
      "type": "VEC2"
    },
    {
      "bufferView": 0,
      "byteOffset": 1376916,
      "componentType": 5125,
      "count": 323727,
      "type": "SCALAR"
    },
    {
      "bufferView": 2,
      "byteOffset": 3145536,
      "componentType": 5126,
      "count": 65532,
      "max": [
        13.811230659484863,
        13.689750671386719,
        13.595035552978516
      ],
      "min": [
        1.017507553100586,
        1.847872257232666,
        0.13642644882202148
      ],
      "type": "VEC3"
    },
    {
      "bufferView": 2,
      "byteOffset": 3931920,
      "componentType": 5126,
      "count": 65532,
      "max": [
        0.9999947547912598,
        0.9999624490737915,
        0.9997671842575073
      ],
      "min": [
        -0.9996042847633362,
        -0.9999947547912598,
        -0.9999315738677979
      ],
      "type": "VEC3"
    },
    {
      "bufferView": 1,
      "byteOffset": 1048512,
      "componentType": 5126,
      "count": 65532,
      "max": [
        0.9109060168266296,
        0.985368013381958
      ],
      "min": [
        0.0037320000119507313,
        0.003871999913826585
      ],
      "type": "VEC2"
    },
    {
      "bufferView": 0,
      "byteOffset": 2671824,
      "componentType": 5125,
      "count": 330411,
      "type": "SCALAR"
    },
    {
      "bufferView": 2,
      "byteOffset": 4718304,
      "componentType": 5126,
      "count": 65532,
      "max": [
        12.865618705749512,
        13.731435775756836,
        14.030960083007813
      ],
      "min": [
        2.0596909523010254,
        0.3448653221130371,
        0.34947919845581055
      ],
      "type": "VEC3"
    },
    {
      "bufferView": 2,
      "byteOffset": 5504688,
      "componentType": 5126,
      "count": 65532,
      "max": [
        0.9999410510063171,
        0.9999978542327881,
        0.9999759793281555
      ],
      "min": [
        -0.9934661388397217,
        -0.9999570846557617,
        -0.9999822378158569
      ],
      "type": "VEC3"
    },
    {
      "bufferView": 1,
      "byteOffset": 1572768,
      "componentType": 5126,
      "count": 65532,
      "max": [
        0.9504899978637695,
        0.9994400143623352
      ],
      "min": [
        0.017627999186515808,
        0.0037150001153349876
      ],
      "type": "VEC2"
    },
    {
      "bufferView": 0,
      "byteOffset": 3993468,
      "componentType": 5125,
      "count": 310602,
      "type": "SCALAR"
    },
    {
      "bufferView": 2,
      "byteOffset": 6291072,
      "componentType": 5126,
      "count": 65532,
      "max": [
        11.551712036132813,
        13.83425235748291,
        20.844572067260742
      ],
      "min": [
        0.3996849060058594,
        0.0,
        0.7858371734619141
      ],
      "type": "VEC3"
    },
    {
      "bufferView": 2,
      "byteOffset": 7077456,
      "componentType": 5126,
      "count": 65532,
      "max": [
        0.999997615814209,
        0.9999992847442627,
        0.9998701810836792
      ],
      "min": [
        -0.9997794032096863,
        -0.9999974966049194,
        -0.9999135732650757
      ],
      "type": "VEC3"
    },
    {
      "bufferView": 1,
      "byteOffset": 2097024,
      "componentType": 5126,
      "count": 65532,
      "max": [
        0.9815809726715088,
        0.9994300007820129
      ],
      "min": [
        0.04261000081896782,
        0.005119999870657921
      ],
      "type": "VEC2"
    },
    {
      "bufferView": 0,
      "byteOffset": 5235876,
      "componentType": 5125,
      "count": 323955,
      "type": "SCALAR"
    },
    {
      "bufferView": 2,
      "byteOffset": 7863840,
      "componentType": 5126,
      "count": 65532,
      "max": [
        10.967477798461914,
        13.761253356933594,
        20.83525848388672
      ],
      "min": [
        3.769012928009033,
        0.009854316711425781,
        0.8088741302490234
      ],
      "type": "VEC3"
    },
    {
      "bufferView": 2,
      "byteOffset": 8650224,
      "componentType": 5126,
      "count": 65532,
      "max": [
        0.9999975562095642,
        0.9999781250953674,
        0.9999598860740662
      ],
      "min": [
        -0.9999998807907104,
        -0.9999964833259583,
        -0.9998615980148315
      ],
      "type": "VEC3"
    },
    {
      "bufferView": 1,
      "byteOffset": 2621280,
      "componentType": 5126,
      "count": 65532,
      "max": [
        0.990460991859436,
        0.9997559785842896
      ],
      "min": [
        0.00855099968612194,
        0.02482300065457821
      ],
      "type": "VEC2"
    },
    {
      "bufferView": 0,
      "byteOffset": 6531696,
      "componentType": 5125,
      "count": 308319,
      "type": "SCALAR"
    },
    {
      "bufferView": 2,
      "byteOffset": 9436608,
      "componentType": 5126,
      "count": 65532,
      "max": [
        9.37242317199707,
        14.565879821777344,
        20.808900833129883
      ],
      "min": [
        2.0886998176574707,
        3.0222530364990234,
        1.53098726272583
      ],
      "type": "VEC3"
    },
    {
      "bufferView": 2,
      "byteOffset": 10222992,
      "componentType": 5126,
      "count": 65532,
      "max": [
        0.9928763508796692,
        0.9999921917915344,
        0.9999826550483704
      ],
      "min": [
        -0.9999755024909973,
        -0.9999446868896484,
        -0.9975959658622742
      ],
      "type": "VEC3"
    },
    {
      "bufferView": 1,
      "byteOffset": 3145536,
      "componentType": 5126,
      "count": 65532,
      "max": [
        0.9817370176315308,
        0.9967880249023438
      ],
      "min": [
        0.008697999641299248,
        0.0035000001080334187
      ],
      "type": "VEC2"
    },
    {
      "bufferView": 0,
      "byteOffset": 7764972,
      "componentType": 5125,
      "count": 336414,
      "type": "SCALAR"
    },
    {
      "bufferView": 2,
      "byteOffset": 11009376,
      "componentType": 5126,
      "count": 65532,
      "max": [
        7.209283828735352,
        13.76820182800293,
        20.37687873840332
      ],
      "min": [
        0.0,
        3.765505075454712,
        1.5866031646728516
      ],
      "type": "VEC3"
    },
    {
      "bufferView": 2,
      "byteOffset": 11795760,
      "componentType": 5126,
      "count": 65532,
      "max": [
        0.999839186668396,
        0.999301016330719,
        0.9998390674591064
      ],
      "min": [
        -0.999999463558197,
        -0.9999988675117493,
        -0.9999473690986633
      ],
      "type": "VEC3"
    },
    {
      "bufferView": 1,
      "byteOffset": 3669792,
      "componentType": 5126,
      "count": 65532,
      "max": [
        0.9887030124664307,
        0.9994149804115295
      ],
      "min": [
        0.005880000069737434,
        0.004811999853700399
      ],
      "type": "VEC2"
    },
    {
      "bufferView": 0,
      "byteOffset": 9110628,
      "componentType": 5125,
      "count": 312768,
      "type": "SCALAR"
    },
    {
      "bufferView": 2,
      "byteOffset": 12582144,
      "componentType": 5126,
      "count": 65532,
      "max": [
        17.643421173095703,
        18.017213821411133,
        20.767601013183594
      ],
      "min": [
        0.01996898651123047,
        0.184967041015625,
        0.15523815155029297
      ],
      "type": "VEC3"
    },
    {
      "bufferView": 2,
      "byteOffset": 13368528,
      "componentType": 5126,
      "count": 65532,
      "max": [
        0.9999986290931702,
        0.9999752044677734,
        0.9998327493667603
      ],
      "min": [
        -0.999999463558197,
        -0.9999446868896484,
        -0.9999423027038574
      ],
      "type": "VEC3"
    },
    {
      "bufferView": 1,
      "byteOffset": 4194048,
      "componentType": 5126,
      "count": 65532,
      "max": [
        0.9965699911117554,
        1.0002460479736328
      ],
      "min": [
        0.000514000013936311,
        0.0018220000201836228
      ],
      "type": "VEC2"
    },
    {
      "bufferView": 0,
      "byteOffset": 10361700,
      "componentType": 5125,
      "count": 266280,
      "type": "SCALAR"
    },
    {
      "bufferView": 2,
      "byteOffset": 14154912,
      "componentType": 5126,
      "count": 38020,
      "max": [
        10.39173412322998,
        14.847251892089844,
        20.862638473510742
      ],
      "min": [
        3.4757466316223145,
        0.06380224227905273,
        1.084066390991211
      ],
      "type": "VEC3"
    },
    {
      "bufferView": 2,
      "byteOffset": 14611152,
      "componentType": 5126,
      "count": 38020,
      "max": [
        0.999515950679779,
        0.9999921917915344,
        0.9999598860740662
      ],
      "min": [
        -0.9999998807907104,
        -0.9999567270278931,
        -0.9990484118461609
      ],
      "type": "VEC3"
    },
    {
      "bufferView": 1,
      "byteOffset": 4718304,
      "componentType": 5126,
      "count": 38020,
      "max": [
        0.9807000160217285,
        0.9944660067558289
      ],
      "min": [
        0.009069999679923058,
        0.06397099792957306
      ],
      "type": "VEC2"
    },
    {
      "bufferView": 0,
      "byteOffset": 11426820,
      "componentType": 5125,
      "count": 143292,
      "type": "SCALAR"
    }
  ],
  "asset": {
    "extras": {
      "author": "Benjamin Bardou (https://sketchfab.com/meryon)",
      "license": "CC-BY-4.0 (http://creativecommons.org/licenses/by/4.0/)",
      "source": "https://sketchfab.com/3d-models/cesar-louvre-museum-30f43907f7814582b5dacbbadbabbe6d",
      "title": "César - Louvre Museum"
    },
    "generator": "Sketchfab-12.67.0",
    "version": "2.0"
  },
  "bufferViews": [
    {
      "buffer": 0,
      "byteLength": 11999988,
      "name": "floatBufferViews",
      "target": 34963
    },
    {
      "buffer": 0,
      "byteLength": 5022464,
      "byteOffset": 11999988,
      "byteStride": 8,
      "name": "floatBufferViews",
      "target": 34962
    },
    {
      "buffer": 0,
      "byteLength": 15067392,
      "byteOffset": 17022452,
      "byteStride": 12,
      "name": "floatBufferViews",
      "target": 34962
    }
  ],
  "buffers": [
    {
      "byteLength": 32089844,
      "uri": "scene.bin"
    }
  ],
  "images": [
    {
      "uri": "textures/lambert5SG_emissive.jpeg"
    }
  ],
  "materials": [
    {
      "doubleSided": true,
      "emissiveFactor": [
        1.0,
        1.0,
        1.0
      ],
      "emissiveTexture": {
        "index": 0
      },
      "name": "lambert5SG",
      "pbrMetallicRoughness": {
        "baseColorFactor": [
          0.0,
          0.0,
          0.0,
          1.0
        ],
        "metallicFactor": 0.0
      }
    }
  ],
  "meshes": [
    {
      "name": "Object_0",
      "primitives": [
        {
          "attributes": {
            "NORMAL": 1,
            "POSITION": 0,
            "TEXCOORD_0": 2
          },
          "indices": 3,
          "material": 0,
          "mode": 4
        }
      ]
    },
    {
      "name": "Object_1",
      "primitives": [
        {
          "attributes": {
            "NORMAL": 5,
            "POSITION": 4,
            "TEXCOORD_0": 6
          },
          "indices": 7,
          "material": 0,
          "mode": 4
        }
      ]
    },
    {
      "name": "Object_2",
      "primitives": [
        {
          "attributes": {
            "NORMAL": 9,
            "POSITION": 8,
            "TEXCOORD_0": 10
          },
          "indices": 11,
          "material": 0,
          "mode": 4
        }
      ]
    },
    {
      "name": "Object_3",
      "primitives": [
        {
          "attributes": {
            "NORMAL": 13,
            "POSITION": 12,
            "TEXCOORD_0": 14
          },
          "indices": 15,
          "material": 0,
          "mode": 4
        }
      ]
    },
    {
      "name": "Object_4",
      "primitives": [
        {
          "attributes": {
            "NORMAL": 17,
            "POSITION": 16,
            "TEXCOORD_0": 18
          },
          "indices": 19,
          "material": 0,
          "mode": 4
        }
      ]
    },
    {
      "name": "Object_5",
      "primitives": [
        {
          "attributes": {
            "NORMAL": 21,
            "POSITION": 20,
            "TEXCOORD_0": 22
          },
          "indices": 23,
          "material": 0,
          "mode": 4
        }
      ]
    },
    {
      "name": "Object_6",
      "primitives": [
        {
          "attributes": {
            "NORMAL": 25,
            "POSITION": 24,
            "TEXCOORD_0": 26
          },
          "indices": 27,
          "material": 0,
          "mode": 4
        }
      ]
    },
    {
      "name": "Object_7",
      "primitives": [
        {
          "attributes": {
            "NORMAL": 29,
            "POSITION": 28,
            "TEXCOORD_0": 30
          },
          "indices": 31,
          "material": 0,
          "mode": 4
        }
      ]
    },
    {
      "name": "Object_8",
      "primitives": [
        {
          "attributes": {
            "NORMAL": 33,
            "POSITION": 32,
            "TEXCOORD_0": 34
          },
          "indices": 35,
          "material": 0,
          "mode": 4
        }
      ]
    },
    {
      "name": "Object_9",
      "primitives": [
        {
          "attributes": {
            "NORMAL": 37,
            "POSITION": 36,
            "TEXCOORD_0": 38
          },
          "indices": 39,
          "material": 0,
          "mode": 4
        }
      ]
    }
  ],
  "nodes": [
    {
      "children": [
        1
      ],
      "matrix": [
        0.04591473564505577,
        0.0,
        0.0,
        0.0,
        0.0,
        1.0195119336543661e-17,
        -0.04591473564505577,
        0.0,
        0.0,
        0.04591473564505577,
        1.0195119336543661e-17,
        0.0,
        0.0,
        0.0,
        0.0,
        1.0
      ],
      "name": "Sketchfab_model"
    },
    {
      "children": [
        2
      ],
      "matrix": [
        1.0,
        0.0,
        0.0,
        0.0,
        0.0,
        1.0,
        0.0,
        0.0,
        0.0,
        0.0,
        1.0,
        0.0,
        -8.453089714050293,
        -6.975077152252197,
        -5.846226215362549,
        1.0
      ],
      "name": "CESAR.obj.cleaner.gles"
    },
    {
      "children": [
        3,
        4,
        5,
        6,
        7,
        8,
        9,
        10,
        11,
        12
      ],
      "name": "Object_2"
    },
    {
      "mesh": 0,
      "name": "Object_3"
    },
    {
      "mesh": 1,
      "name": "Object_4"
    },
    {
      "mesh": 2,
      "name": "Object_5"
    },
    {
      "mesh": 3,
      "name": "Object_6"
    },
    {
      "mesh": 4,
      "name": "Object_7"
    },
    {
      "mesh": 5,
      "name": "Object_8"
    },
    {
      "mesh": 6,
      "name": "Object_9"
    },
    {
      "mesh": 7,
      "name": "Object_10"
    },
    {
      "mesh": 8,
      "name": "Object_11"
    },
    {
      "mesh": 9,
      "name": "Object_12"
    }
  ],
  "samplers": [
    {
      "magFilter": 9729,
      "minFilter": 9987,
      "wrapS": 10497,
      "wrapT": 10497
    }
  ],
  "scene": 0,
  "scenes": [
    {
      "name": "Sketchfab_Scene",
      "nodes": [
        0
      ]
    }
  ],
  "textures": [
    {
      "sampler": 0,
      "source": 0
    }
  ]
}
